<?xml version="1.0" encoding="UTF-8" standalone="no" ?>
<!DOCTYPE svg PUBLIC "-//W3C//DTD SVG 1.1//EN" "http://www.w3.org/Graphics/SVG/1.1/DTD/svg11.dtd">
<svg xmlns="http://www.w3.org/2000/svg" xmlns:xlink="http://www.w3.org/1999/xlink" version="1.1" width="180" height="34" viewBox="0 0 180 34" xml:space="preserve">
<desc>Created with Fabric.js 4.6.0</desc>
<defs>
</defs>
<g transform="matrix(1.33 0 0 1.33 111.06 15.26)" id="KmffUlpZxGoOAdLH1N2lV" clip-path="url(#CLIPPATH_20)"  >
<clipPath id="CLIPPATH_20" >
	<rect transform="matrix(1 0 0 1 -14.87 1.76)" id="_clipPath_bA8FaZ2Fb7fHpTPUfy8ELthww7hQlhJx" x="-90" y="-25" rx="0" ry="0" width="180" height="50" />
</clipPath>
<path style="stroke: none; stroke-width: 1; stroke-dasharray: none; stroke-linecap: butt; stroke-dashoffset: 0; stroke-linejoin: miter; stroke-miterlimit: 4; fill: rgb(255,255,255); fill-rule: nonzero; opacity: 1;" vector-effect="non-scaling-stroke"  transform=" translate(-104.87, -23.24)" d="M 61.404 33.274 L 61.404 33.274 L 61.404 33.274 Q 59.397 33.274 57.837 32.351 L 57.837 32.351 L 57.837 32.351 Q 56.278 31.428 55.395 29.803 L 55.395 29.803 L 55.395 29.803 Q 54.512 28.178 54.512 26.072 L 54.512 26.072 L 54.512 26.072 Q 54.512 23.94 55.347 22.315 L 55.347 22.315 L 55.347 22.315 Q 56.181 20.69 57.656 19.767 L 57.656 19.767 L 57.656 19.767 Q 59.131 18.844 61.041 18.844 L 61.041 18.844 L 61.041 18.844 Q 62.927 18.844 64.281 19.741 L 64.281 19.741 L 64.281 19.741 Q 65.635 20.638 66.348 22.211 L 66.348 22.211 L 66.348 22.211 Q 67.062 23.784 67.062 25.838 L 67.062 25.838 L 67.062 25.838 Q 67.062 26.332 66.747 26.657 L 66.747 26.657 L 66.747 26.657 Q 66.433 26.982 65.95 26.982 L 65.95 26.982 L 56.205 26.982 L 56.205 24.902 L 65.877 24.902 L 64.886 25.63 L 64.886 25.63 Q 64.861 24.33 64.402 23.303 L 64.402 23.303 L 64.402 23.303 Q 63.943 22.276 63.096 21.678 L 63.096 21.678 L 63.096 21.678 Q 62.25 21.08 61.041 21.08 L 61.041 21.08 L 61.041 21.08 Q 59.663 21.08 58.683 21.73 L 58.683 21.73 L 58.683 21.73 Q 57.704 22.38 57.196 23.511 L 57.196 23.511 L 57.196 23.511 Q 56.689 24.642 56.689 26.072 L 56.689 26.072 L 56.689 26.072 Q 56.689 27.502 57.293 28.62 L 57.293 28.62 L 57.293 28.62 Q 57.898 29.738 58.961 30.388 L 58.961 30.388 L 58.961 30.388 Q 60.025 31.038 61.404 31.038 L 61.404 31.038 L 61.404 31.038 Q 62.153 31.038 62.939 30.739 L 62.939 30.739 L 62.939 30.739 Q 63.725 30.44 64.209 30.05 L 64.209 30.05 L 64.209 30.05 Q 64.571 29.764 64.994 29.751 L 64.994 29.751 L 64.994 29.751 Q 65.418 29.738 65.732 30.024 L 65.732 30.024 L 65.732 30.024 Q 66.143 30.414 66.167 30.882 L 66.167 30.882 L 66.167 30.882 Q 66.191 31.35 65.78 31.688 L 65.78 31.688 L 65.78 31.688 Q 64.958 32.39 63.737 32.832 L 63.737 32.832 L 63.737 32.832 Q 62.516 33.274 61.404 33.274 Z M 78.765 33.17 L 78.765 33.17 L 78.765 33.17 Q 78.523 33.17 78.305 33.092 L 78.305 33.092 L 78.305 33.092 Q 78.088 33.014 77.894 32.754 L 77.894 32.754 L 73.663 27.294 L 72.792 26.358 L 68.585 21.002 L 68.585 21.002 Q 68.271 20.586 68.247 20.105 L 68.247 20.105 L 68.247 20.105 Q 68.222 19.624 68.488 19.286 L 68.488 19.286 L 68.488 19.286 Q 68.754 18.948 69.286 18.948 L 69.286 18.948 L 69.286 18.948 Q 69.867 18.948 70.205 19.39 L 70.205 19.39 L 74.34 24.694 L 74.969 25.318 L 79.514 31.168 L 79.514 31.168 Q 79.877 31.636 79.865 32.091 L 79.865 32.091 L 79.865 32.091 Q 79.853 32.546 79.551 32.858 L 79.551 32.858 L 79.551 32.858 Q 79.249 33.17 78.765 33.17 Z M 69.528 33.17 L 69.528 33.17 L 69.528 33.17 Q 69.045 33.17 68.766 32.845 L 68.766 32.845 L 68.766 32.845 Q 68.488 32.52 68.488 32.052 L 68.488 32.052 L 68.488 32.052 Q 68.488 31.584 68.827 31.116 L 68.827 31.116 L 72.938 25.578 L 74.243 27.554 L 70.399 32.754 L 70.399 32.754 Q 70.036 33.17 69.528 33.17 Z M 79.321 21.106 L 75.501 26.488 L 73.832 24.954 L 77.725 19.39 L 77.725 19.39 Q 77.919 19.13 78.136 19.039 L 78.136 19.039 L 78.136 19.039 Q 78.354 18.948 78.62 18.948 L 78.62 18.948 L 78.62 18.948 Q 79.152 18.948 79.418 19.299 L 79.418 19.299 L 79.418 19.299 Q 79.684 19.65 79.672 20.144 L 79.672 20.144 L 79.672 20.144 Q 79.66 20.638 79.321 21.106 L 79.321 21.106 Z M 87.252 33.274 L 87.252 33.274 L 87.252 33.274 Q 85.487 33.274 84.085 32.325 L 84.085 32.325 L 84.085 32.325 Q 82.682 31.376 81.872 29.751 L 81.872 29.751 L 81.872 29.751 Q 81.062 28.126 81.062 26.072 L 81.062 26.072 L 81.062 26.072 Q 81.062 24.018 81.945 22.38 L 81.945 22.38 L 81.945 22.38 Q 82.827 20.742 84.338 19.793 L 84.338 19.793 L 84.338 19.793 Q 85.85 18.844 87.736 18.844 L 87.736 18.844 L 87.736 18.844 Q 89.622 18.844 91.121 19.793 L 91.121 19.793 L 91.121 19.793 Q 92.62 20.742 93.503 22.38 L 93.503 22.38 L 93.503 22.38 Q 94.385 24.018 94.385 26.072 L 94.385 26.072 L 93.442 26.072 L 93.442 26.072 Q 93.442 28.126 92.632 29.751 L 92.632 29.751 L 92.632 29.751 Q 91.822 31.376 90.42 32.325 L 90.42 32.325 L 90.42 32.325 Q 89.017 33.274 87.252 33.274 Z M 87.736 30.934 L 87.736 30.934 L 87.736 30.934 Q 88.969 30.934 89.936 30.297 L 89.936 30.297 L 89.936 30.297 Q 90.903 29.66 91.459 28.555 L 91.459 28.555 L 91.459 28.555 Q 92.016 27.45 92.016 26.072 L 92.016 26.072 L 92.016 26.072 Q 92.016 24.668 91.459 23.563 L 91.459 23.563 L 91.459 23.563 Q 90.903 22.458 89.936 21.821 L 89.936 21.821 L 89.936 21.821 Q 88.969 21.184 87.736 21.184 L 87.736 21.184 L 87.736 21.184 Q 86.527 21.184 85.547 21.821 L 85.547 21.821 L 85.547 21.821 Q 84.568 22.458 84 23.563 L 84 23.563 L 84 23.563 Q 83.432 24.668 83.432 26.072 L 83.432 26.072 L 83.432 26.072 Q 83.432 27.45 84 28.555 L 84 28.555 L 84 28.555 Q 84.568 29.66 85.547 30.297 L 85.547 30.297 L 85.547 30.297 Q 86.527 30.934 87.736 30.934 Z M 93.152 33.196 L 93.152 33.196 L 93.152 33.196 Q 92.62 33.196 92.269 32.819 L 92.269 32.819 L 92.269 32.819 Q 91.919 32.442 91.919 31.87 L 91.919 31.87 L 91.919 27.892 L 92.378 25.136 L 94.385 26.072 L 94.385 31.87 L 94.385 31.87 Q 94.385 32.442 94.035 32.819 L 94.035 32.819 L 94.035 32.819 Q 93.684 33.196 93.152 33.196 Z M 115.422 33.196 L 115.422 33.196 L 115.422 33.196 Q 114.89 33.196 114.539 32.819 L 114.539 32.819 L 114.539 32.819 Q 114.189 32.442 114.189 31.87 L 114.189 31.87 L 114.189 24.434 L 114.189 24.434 Q 114.189 22.796 113.439 22.003 L 113.439 22.003 L 113.439 22.003 Q 112.689 21.21 111.48 21.21 L 111.48 21.21 L 111.48 21.21 Q 110.223 21.21 109.413 22.146 L 109.413 22.146 L 109.413 22.146 Q 108.603 23.082 108.603 24.538 L 108.603 24.538 L 106.596 24.538 L 106.596 24.538 Q 106.596 22.848 107.273 21.561 L 107.273 21.561 L 107.273 21.561 Q 107.95 20.274 109.171 19.546 L 109.171 19.546 L 109.171 19.546 Q 110.392 18.818 111.964 18.818 L 111.964 18.818 L 111.964 18.818 Q 113.342 18.818 114.406 19.468 L 114.406 19.468 L 114.406 19.468 Q 115.47 20.118 116.063 21.379 L 116.063 21.379 L 116.063 21.379 Q 116.655 22.64 116.655 24.434 L 116.655 24.434 L 116.655 31.87 L 116.655 31.87 Q 116.655 32.442 116.316 32.819 L 116.316 32.819 L 116.316 32.819 Q 115.978 33.196 115.422 33.196 Z M 99.294 33.196 L 99.294 33.196 L 99.294 33.196 Q 98.762 33.196 98.411 32.819 L 98.411 32.819 L 98.411 32.819 Q 98.061 32.442 98.061 31.87 L 98.061 31.87 L 98.061 20.3 L 98.061 20.3 Q 98.061 19.702 98.411 19.338 L 98.411 19.338 L 98.411 19.338 Q 98.762 18.974 99.294 18.974 L 99.294 18.974 L 99.294 18.974 Q 99.85 18.974 100.188 19.338 L 100.188 19.338 L 100.188 19.338 Q 100.527 19.702 100.527 20.3 L 100.527 20.3 L 100.527 31.87 L 100.527 31.87 Q 100.527 32.442 100.188 32.819 L 100.188 32.819 L 100.188 32.819 Q 99.85 33.196 99.294 33.196 Z M 107.37 33.196 L 107.37 33.196 L 107.37 33.196 Q 106.838 33.196 106.487 32.819 L 106.487 32.819 L 106.487 32.819 Q 106.137 32.442 106.137 31.87 L 106.137 31.87 L 106.137 24.434 L 106.137 24.434 Q 106.137 22.796 105.387 22.003 L 105.387 22.003 L 105.387 22.003 Q 104.638 21.21 103.429 21.21 L 103.429 21.21 L 103.429 21.21 Q 102.171 21.21 101.349 22.146 L 101.349 22.146 L 101.349 22.146 Q 100.527 23.082 100.527 24.538 L 100.527 24.538 L 99.004 24.538 L 99.004 24.538 Q 99.004 22.848 99.632 21.561 L 99.632 21.561 L 99.632 21.561 Q 100.261 20.274 101.373 19.546 L 101.373 19.546 L 101.373 19.546 Q 102.485 18.818 103.912 18.818 L 103.912 18.818 L 103.912 18.818 Q 105.29 18.818 106.354 19.468 L 106.354 19.468 L 106.354 19.468 Q 107.418 20.118 108.011 21.379 L 108.011 21.379 L 108.011 21.379 Q 108.603 22.64 108.603 24.434 L 108.603 24.434 L 108.603 31.87 L 108.603 31.87 Q 108.603 32.442 108.265 32.819 L 108.265 32.819 L 108.265 32.819 Q 107.926 33.196 107.37 33.196 Z M 122.216 33.17 L 122.216 33.17 L 122.216 33.17 Q 121.684 33.17 121.334 32.793 L 121.334 32.793 L 121.334 32.793 Q 120.983 32.416 120.983 31.844 L 120.983 31.844 L 120.983 20.274 L 120.983 20.274 Q 120.983 19.676 121.334 19.312 L 121.334 19.312 L 121.334 19.312 Q 121.684 18.948 122.216 18.948 L 122.216 18.948 L 122.216 18.948 Q 122.773 18.948 123.111 19.312 L 123.111 19.312 L 123.111 19.312 Q 123.45 19.676 123.45 20.274 L 123.45 20.274 L 123.45 31.844 L 123.45 31.844 Q 123.45 32.416 123.111 32.793 L 123.111 32.793 L 123.111 32.793 Q 122.773 33.17 122.216 33.17 Z M 122.216 16.634 L 122.216 16.634 L 122.216 16.634 Q 121.564 16.634 121.092 16.127 L 121.092 16.127 L 121.092 16.127 Q 120.62 15.62 120.62 14.918 L 120.62 14.918 L 120.62 14.918 Q 120.62 14.216 121.092 13.709 L 121.092 13.709 L 121.092 13.709 Q 121.564 13.202 122.216 13.202 L 122.216 13.202 L 122.216 13.202 Q 122.869 13.202 123.341 13.709 L 123.341 13.709 L 123.341 13.709 Q 123.812 14.216 123.812 14.918 L 123.812 14.918 L 123.812 14.918 Q 123.812 15.62 123.341 16.127 L 123.341 16.127 L 123.341 16.127 Q 122.869 16.634 122.216 16.634 Z M 134.04 33.274 L 134.04 33.274 L 134.04 33.274 Q 132.106 33.274 130.595 32.325 L 130.595 32.325 L 130.595 32.325 Q 129.083 31.376 128.225 29.751 L 128.225 29.751 L 128.225 29.751 Q 127.367 28.126 127.367 26.072 L 127.367 26.072 L 127.367 26.072 Q 127.367 23.966 128.213 22.328 L 128.213 22.328 L 128.213 22.328 Q 129.059 20.69 130.534 19.767 L 130.534 19.767 L 130.534 19.767 Q 132.009 18.844 133.919 18.844 L 133.919 18.844 L 133.919 18.844 Q 135.346 18.844 136.531 19.429 L 136.531 19.429 L 136.531 19.429 Q 137.716 20.014 138.659 21.184 L 138.659 21.184 L 138.659 21.184 Q 138.997 21.6 138.901 22.042 L 138.901 22.042 L 138.901 22.042 Q 138.804 22.484 138.369 22.822 L 138.369 22.822 L 138.369 22.822 Q 138.03 23.082 137.619 22.991 L 137.619 22.991 L 137.619 22.991 Q 137.208 22.9 136.869 22.536 L 136.869 22.536 L 136.869 22.536 Q 135.685 21.184 133.919 21.184 L 133.919 21.184 L 133.919 21.184 Q 132.686 21.184 131.743 21.795 L 131.743 21.795 L 131.743 21.795 Q 130.8 22.406 130.268 23.498 L 130.268 23.498 L 130.268 23.498 Q 129.736 24.59 129.736 26.072 L 129.736 26.072 L 129.736 26.072 Q 129.736 27.476 130.28 28.568 L 130.28 28.568 L 130.28 28.568 Q 130.824 29.66 131.792 30.297 L 131.792 30.297 L 131.792 30.297 Q 132.759 30.934 134.04 30.934 L 134.04 30.934 L 134.04 30.934 Q 134.887 30.934 135.527 30.713 L 135.527 30.713 L 135.527 30.713 Q 136.168 30.492 136.7 30.024 L 136.7 30.024 L 136.7 30.024 Q 137.087 29.686 137.498 29.647 L 137.498 29.647 L 137.498 29.647 Q 137.909 29.608 138.224 29.894 L 138.224 29.894 L 138.224 29.894 Q 138.635 30.258 138.683 30.713 L 138.683 30.713 L 138.683 30.713 Q 138.731 31.168 138.393 31.532 L 138.393 31.532 L 138.393 31.532 Q 136.652 33.274 134.04 33.274 Z M 148.089 33.274 L 148.089 33.274 L 148.089 33.274 Q 146.324 33.274 144.921 32.325 L 144.921 32.325 L 144.921 32.325 Q 143.519 31.376 142.709 29.751 L 142.709 29.751 L 142.709 29.751 Q 141.899 28.126 141.899 26.072 L 141.899 26.072 L 141.899 26.072 Q 141.899 24.018 142.781 22.38 L 142.781 22.38 L 142.781 22.38 Q 143.664 20.742 145.175 19.793 L 145.175 19.793 L 145.175 19.793 Q 146.687 18.844 148.573 18.844 L 148.573 18.844 L 148.573 18.844 Q 150.459 18.844 151.958 19.793 L 151.958 19.793 L 151.958 19.793 Q 153.457 20.742 154.339 22.38 L 154.339 22.38 L 154.339 22.38 Q 155.222 24.018 155.222 26.072 L 155.222 26.072 L 154.279 26.072 L 154.279 26.072 Q 154.279 28.126 153.469 29.751 L 153.469 29.751 L 153.469 29.751 Q 152.659 31.376 151.257 32.325 L 151.257 32.325 L 151.257 32.325 Q 149.854 33.274 148.089 33.274 Z M 148.573 30.934 L 148.573 30.934 L 148.573 30.934 Q 149.806 30.934 150.773 30.297 L 150.773 30.297 L 150.773 30.297 Q 151.74 29.66 152.296 28.555 L 152.296 28.555 L 152.296 28.555 Q 152.852 27.45 152.852 26.072 L 152.852 26.072 L 152.852 26.072 Q 152.852 24.668 152.296 23.563 L 152.296 23.563 L 152.296 23.563 Q 151.74 22.458 150.773 21.821 L 150.773 21.821 L 150.773 21.821 Q 149.806 21.184 148.573 21.184 L 148.573 21.184 L 148.573 21.184 Q 147.364 21.184 146.384 21.821 L 146.384 21.821 L 146.384 21.821 Q 145.405 22.458 144.837 23.563 L 144.837 23.563 L 144.837 23.563 Q 144.269 24.668 144.269 26.072 L 144.269 26.072 L 144.269 26.072 Q 144.269 27.45 144.837 28.555 L 144.837 28.555 L 144.837 28.555 Q 145.405 29.66 146.384 30.297 L 146.384 30.297 L 146.384 30.297 Q 147.364 30.934 148.573 30.934 Z M 153.989 33.196 L 153.989 33.196 L 153.989 33.196 Q 153.457 33.196 153.106 32.819 L 153.106 32.819 L 153.106 32.819 Q 152.756 32.442 152.756 31.87 L 152.756 31.87 L 152.756 27.892 L 153.215 25.136 L 155.222 26.072 L 155.222 31.87 L 155.222 31.87 Q 155.222 32.442 154.871 32.819 L 154.871 32.819 L 154.871 32.819 Q 154.521 33.196 153.989 33.196 Z" stroke-linecap="round" />
</g>
<g transform="matrix(1.33 0 0 1.33 25.53 6.97)" id="-qsr35HinIy1hMHo6Eq-E" clip-path="url(#CLIPPATH_21)"  >
<clipPath id="CLIPPATH_21" >
	<rect transform="matrix(1 0 0 1 49.28 7.98)" id="_clipPath_bA8FaZ2Fb7fHpTPUfy8ELthww7hQlhJx" x="-90" y="-25" rx="0" ry="0" width="180" height="50" />
</clipPath>
<path style="stroke: none; stroke-width: 1; stroke-dasharray: none; stroke-linecap: butt; stroke-dashoffset: 0; stroke-linejoin: miter; stroke-miterlimit: 4; fill: rgb(255,255,255); fill-rule: nonzero; opacity: 1;" vector-effect="non-scaling-stroke"  transform=" translate(-40.72, -17.02)" d="M 42.722 19.56 C 42.722 19.29 42.722 17.1 42.722 16.82 C 42.722 16.32 42.34 15.92 41.884 15.92 C 41.429 15.92 37.83 15.92 37.374 15.92 C 36.639 15.92 36.035 15.28 36.035 14.48 C 36.035 13.69 36.639 13.04 37.374 13.04 C 37.83 13.04 41.429 13.04 41.884 13.04 C 43.819 13.04 45.4 14.74 45.4 16.82 C 45.4 17.1 45.4 19.29 45.4 19.56 C 45.4 20.36 44.795 21 44.061 21 C 43.317 21 42.722 20.36 42.722 19.56 Z" stroke-linecap="round" />
</g>
<g transform="matrix(1.33 0 0 1.33 8.22 6.93)" id="5OoPyGa6yTFJ2BwrwaBLu" clip-path="url(#CLIPPATH_22)"  >
<clipPath id="CLIPPATH_22" >
	<rect transform="matrix(1 0 0 1 62.26 8.01)" id="_clipPath_bA8FaZ2Fb7fHpTPUfy8ELthww7hQlhJx" x="-90" y="-25" rx="0" ry="0" width="180" height="50" />
</clipPath>
<path style="stroke: none; stroke-width: 1; stroke-dasharray: none; stroke-linecap: butt; stroke-dashoffset: 0; stroke-linejoin: miter; stroke-miterlimit: 4; fill: rgb(255,255,255); fill-rule: nonzero; opacity: 1;" vector-effect="non-scaling-stroke"  transform=" translate(-27.74, -16.99)" d="M 25.732 19.531 C 25.732 19.261 25.732 17.071 25.732 16.791 C 25.732 16.291 26.114 15.891 26.57 15.891 C 27.025 15.891 30.624 15.891 31.08 15.891 C 31.815 15.891 32.419 15.251 32.419 14.451 C 32.419 13.661 31.815 13.011 31.08 13.011 C 30.624 13.011 27.025 13.011 26.57 13.011 C 24.635 13.011 23.054 14.711 23.054 16.791 C 23.054 17.071 23.054 19.261 23.054 19.531 C 23.054 20.331 23.659 20.971 24.393 20.971 C 25.137 20.971 25.732 20.331 25.732 19.531 Z" stroke-linecap="round" />
</g>
<g transform="matrix(1.33 0 0 1.33 8.2 27.05)" id="i80d-B21uEpOXvwDX9ac6" clip-path="url(#CLIPPATH_23)"  >
<clipPath id="CLIPPATH_23" >
	<rect transform="matrix(1 0 0 1 62.28 -7.08)" id="_clipPath_bA8FaZ2Fb7fHpTPUfy8ELthww7hQlhJx" x="-90" y="-25" rx="0" ry="0" width="180" height="50" />
</clipPath>
<path style="stroke: none; stroke-width: 1; stroke-dasharray: none; stroke-linecap: butt; stroke-dashoffset: 0; stroke-linejoin: miter; stroke-miterlimit: 4; fill: rgb(255,255,255); fill-rule: nonzero; opacity: 1;" vector-effect="non-scaling-stroke"  transform=" translate(-27.72, -32.08)" d="M 25.713 29.541 C 25.713 29.811 25.713 32.001 25.713 32.281 C 25.713 32.781 26.094 33.181 26.55 33.181 C 27.006 33.181 30.605 33.181 31.061 33.181 C 31.795 33.181 32.4 33.821 32.4 34.621 C 32.4 35.411 31.795 36.061 31.061 36.061 C 30.605 36.061 27.006 36.061 26.55 36.061 C 24.616 36.061 23.035 34.361 23.035 32.281 C 23.035 32.001 23.035 29.811 23.035 29.541 C 23.035 28.741 23.639 28.101 24.374 28.101 C 25.118 28.101 25.713 28.741 25.713 29.541 Z" stroke-linecap="round" />
</g>
<g transform="matrix(1.33 0 0 1.33 25.54 30.44)" id="zsDKsgHdc7Vw5RkWIZpz1" clip-path="url(#CLIPPATH_24)"  >
<clipPath id="CLIPPATH_24" >
	<rect transform="matrix(1 0 0 1 49.28 -9.62)" id="_clipPath_bA8FaZ2Fb7fHpTPUfy8ELthww7hQlhJx" x="-90" y="-25" rx="0" ry="0" width="180" height="50" />
</clipPath>
<path style="stroke: none; stroke-width: 1; stroke-dasharray: none; stroke-linecap: butt; stroke-dashoffset: 0; stroke-linejoin: miter; stroke-miterlimit: 4; fill: rgb(255,255,255); fill-rule: nonzero; opacity: 1;" vector-effect="non-scaling-stroke"  transform=" translate(-40.72, -34.62)" d="M 36.044 34.621 C 36.044 35.411 36.639 36.061 37.383 36.061 C 37.681 36.061 39.178 36.061 41.884 36.061 L 41.894 36.061 L 41.903 36.061 L 41.903 36.061 L 41.912 36.061 L 41.922 36.061 L 41.931 36.061 L 41.931 36.061 L 41.94 36.061 L 41.95 36.061 L 41.959 36.061 L 41.959 36.061 L 41.968 36.061 L 41.977 36.061 L 41.987 36.061 L 41.987 36.061 L 41.996 36.061 L 42.005 36.061 L 42.015 36.061 L 42.015 36.061 L 42.024 36.061 L 42.033 36.061 L 42.043 36.061 L 42.043 36.061 L 42.052 36.061 L 42.061 36.061 L 42.061 36.061 L 42.07 36.061 L 42.08 36.061 L 42.089 36.061 L 42.089 36.061 L 42.098 36.061 L 42.108 36.061 L 42.117 36.061 L 42.117 36.061 L 42.126 36.061 L 42.136 36.061 L 42.145 36.061 L 42.145 36.061 L 42.154 36.061 L 42.163 36.061 L 42.173 36.061 L 42.173 36.061 L 42.182 36.061 L 42.191 36.061 L 42.191 36.061 L 42.201 36.061 L 42.21 36.061 L 42.219 36.061 L 42.219 36.061 L 42.229 36.061 L 42.238 36.061 L 42.247 36.061 L 42.247 36.061 L 42.256 36.061 L 42.266 36.061 L 42.266 36.061 L 42.275 36.061 L 42.284 36.061 L 42.294 36.061 L 42.294 36.061 L 42.303 36.061 L 42.312 36.061 L 42.312 36.061 L 42.322 36.061 L 42.331 36.061 L 42.34 36.061 L 42.34 36.061 L 42.349 36.061 L 42.359 36.061 L 42.359 36.061 L 42.368 36.061 L 42.377 36.061 L 42.387 36.061 L 42.387 36.061 L 42.396 36.061 L 42.405 36.061 L 42.405 36.061 L 42.415 36.061 L 42.424 36.061 L 42.424 36.061 L 42.433 36.061 L 42.442 36.061 L 42.452 36.061 L 42.452 36.061 L 42.461 36.061 L 42.47 36.061 L 42.47 36.061 L 42.48 36.061 L 42.489 36.061 L 42.489 36.061 L 42.498 36.061 L 42.508 36.061 L 42.508 36.061 L 42.517 36.061 L 42.526 36.061 L 42.535 36.061 L 42.535 36.061 L 42.545 36.061 L 42.554 36.061 L 42.554 36.061 L 42.563 36.061 L 42.573 36.061 L 42.573 36.061 L 42.582 36.061 L 42.591 36.061 L 42.591 36.061 L 42.601 36.061 L 42.61 36.061 L 42.61 36.061 L 42.619 36.061 L 42.628 36.061 L 42.628 36.061 L 42.638 36.061 L 42.647 36.061 L 42.647 36.061 L 42.656 36.061 L 42.666 36.061 L 42.666 36.061 L 42.675 36.061 L 42.684 36.061 L 42.684 36.061 L 42.694 36.061 L 42.703 36.061 L 42.703 36.061 L 42.712 36.061 L 42.721 36.061 L 42.721 36.061 L 42.731 36.061 L 42.74 36.061 L 42.74 36.061 L 42.749 36.061 L 42.759 36.061 L 42.759 36.061 L 42.768 36.061 L 42.777 36.061 L 42.777 36.061 L 42.787 36.061 L 42.796 36.061 L 42.796 36.061 L 42.805 36.061 L 42.805 36.061 L 42.814 36.061 L 42.824 36.061 L 42.824 36.061 L 42.833 36.061 L 42.842 36.061 L 42.842 36.061 L 42.852 36.061 L 42.861 36.061 L 42.861 36.061 L 42.87 36.061 L 42.87 36.061 L 42.88 36.061 L 42.889 36.061 L 42.889 36.061 L 42.898 36.061 L 42.907 36.061 L 42.907 36.061 L 42.917 36.061 L 42.926 36.061 L 42.926 36.061 L 42.935 36.061 L 42.935 36.061 L 42.945 36.061 L 42.954 36.061 L 42.954 36.061 L 42.963 36.061 L 42.963 36.061 L 42.973 36.061 L 42.982 36.061 L 42.982 36.061 L 42.991 36.061 L 42.991 36.061 L 43 36.061 L 43.01 36.061 L 43.01 36.061 L 43.019 36.061 L 43.028 36.061 L 43.028 36.061 L 43.038 36.061 L 43.038 36.061 L 43.047 36.061 L 43.056 36.061 L 43.056 36.061 L 43.066 36.061 L 43.066 36.061 L 43.075 36.061 L 43.075 36.061 L 43.084 36.061 L 43.093 36.061 L 43.093 36.061 L 43.103 36.061 L 43.103 36.061 L 43.112 36.061 L 43.121 36.061 L 43.121 36.061 L 43.131 36.061 L 43.131 36.061 L 43.14 36.061 L 43.14 36.061 L 43.149 36.061 L 43.159 36.061 L 43.159 36.061 L 43.168 36.061 L 43.168 36.061 L 43.177 36.061 L 43.177 36.061 L 43.186 36.061 L 43.196 36.061 L 43.196 36.061 L 43.205 36.061 L 43.205 36.061 L 43.214 36.061 L 43.214 36.061 L 43.224 36.061 L 43.224 36.061 L 43.233 36.061 L 43.242 36.061 L 43.242 36.061 L 43.252 36.061 L 43.252 36.061 L 43.261 36.061 L 43.261 36.061 L 43.27 36.061 L 43.27 36.061 L 43.279 36.061 L 43.279 36.061 L 43.289 36.061 L 43.298 36.061 L 43.298 36.061 L 43.307 36.061 L 43.307 36.061 L 43.317 36.061 L 43.317 36.061 L 43.326 36.061 L 43.326 36.061 L 43.335 36.061 L 43.335 36.061 L 43.345 36.061 L 43.345 36.061 L 43.354 36.061 L 43.354 36.061 L 43.363 36.061 L 43.363 36.061 L 43.372 36.061 L 43.372 36.061 L 43.382 36.061 L 43.382 36.061 L 43.391 36.061 L 43.391 36.061 L 43.4 36.061 L 43.4 36.061 L 43.41 36.061 L 43.41 36.061 L 43.419 36.061 L 43.419 36.061 L 43.428 36.061 L 43.428 36.061 L 43.438 36.061 L 43.438 36.061 L 43.447 36.061 L 43.447 36.061 L 43.456 36.061 L 43.456 36.061 L 43.465 36.061 L 43.465 36.061 L 43.475 36.061 L 43.475 36.061 L 43.484 36.061 L 43.484 36.061 L 43.493 36.061 L 43.493 36.061 L 43.503 36.061 L 43.503 36.061 L 43.512 36.061 L 43.512 36.061 L 43.521 36.061 L 43.521 36.061 L 43.521 36.061 L 43.531 36.061 L 43.531 36.061 L 43.54 36.061 L 43.54 36.061 L 43.549 36.061 L 43.549 36.061 L 43.558 36.061 L 43.558 36.061 L 43.568 36.061 L 43.568 36.061 L 43.568 36.061 L 43.577 36.061 L 43.577 36.061 L 43.586 36.061 L 43.586 36.061 L 43.596 36.061 L 43.596 36.061 L 43.605 36.061 L 43.605 36.061 L 43.605 36.061 L 43.614 36.061 L 43.614 36.061 L 43.624 36.061 L 43.624 36.061 L 43.633 36.061 L 43.633 36.061 L 43.633 36.061 L 43.642 36.061 L 43.642 36.061 L 43.651 36.061 L 43.651 36.061 L 43.651 36.061 L 43.661 36.061 L 43.661 36.061 L 43.67 36.061 L 43.67 36.061 L 43.67 36.061 L 43.679 36.061 L 43.679 36.061 L 43.689 36.061 L 43.689 36.061 L 43.689 36.061 L 43.698 36.061 L 43.698 36.061 L 43.707 36.061 L 43.707 36.061 L 43.707 36.061 L 43.717 36.061 L 43.717 36.061 L 43.726 36.061 L 43.726 36.061 L 43.726 36.061 L 43.735 36.061 L 43.735 36.061 L 43.735 36.061 L 43.744 36.061 L 43.744 36.061 L 43.754 36.061 L 43.754 36.061 L 43.754 36.061 L 43.763 36.061 L 43.763 36.061 L 43.763 36.061 L 43.772 36.061 L 43.772 36.061 L 43.772 36.061 L 43.782 36.061 L 43.782 36.061 L 43.782 36.061 L 43.791 36.061 L 43.791 36.061 L 43.791 36.061 L 43.8 36.061 L 43.8 36.061 L 43.8 36.061 L 43.81 36.061 L 43.81 36.061 L 43.81 36.061 L 43.819 36.061 L 43.819 36.061 L 43.819 36.061 L 43.828 36.061 L 43.828 36.061 L 43.828 36.061 L 43.837 36.061 L 43.837 36.061 L 43.837 36.061 L 43.847 36.061 L 43.847 36.061 L 43.847 36.061 L 43.856 36.061 L 43.856 36.061 L 43.856 36.061 L 43.856 36.061 L 43.865 36.061 L 43.865 36.061 L 43.865 36.061 L 43.875 36.061 L 43.875 36.061 L 43.875 36.061 L 43.884 36.061 L 43.884 36.061 L 43.884 36.061 L 43.884 36.061 L 43.893 36.061 L 43.893 36.061 L 43.893 36.061 L 43.893 36.061 L 43.903 36.061 L 43.903 36.061 L 43.903 36.061 L 43.912 36.061 L 43.912 36.061 L 43.912 36.061 L 43.912 36.061 L 43.921 36.061 L 43.921 36.061 L 43.921 36.061 L 43.921 36.061 L 43.93 36.061 L 43.93 36.061 L 43.93 36.061 L 43.93 36.061 L 43.94 36.061 L 43.94 36.061 L 43.94 36.061 L 43.94 36.061 L 43.949 36.061 L 43.949 36.061 L 43.949 36.061 L 43.949 36.061 L 43.949 36.061 L 43.958 36.061 L 43.958 36.061 L 43.958 36.061 L 43.958 36.061 L 43.968 36.061 L 43.968 36.061 L 43.968 36.061 L 43.968 36.061 L 43.968 36.061 L 43.977 36.061 L 43.977 36.061 L 43.977 36.061 L 43.977 36.061 L 43.977 36.061 L 43.986 36.061 L 43.986 36.061 L 43.986 36.061 L 43.986 36.061 L 43.986 36.061 L 43.986 36.061 L 43.996 36.061 L 43.996 36.061 L 43.996 36.061 L 43.996 36.061 L 43.996 36.061 L 44.005 36.061 L 44.005 36.061 L 44.005 36.061 L 44.005 36.061 L 44.005 36.061 L 44.005 36.061 L 44.014 36.061 L 44.014 36.061 L 44.014 36.061 L 44.014 36.061 L 44.014 36.061 L 44.014 36.061 L 44.014 36.061 L 44.023 36.061 L 44.023 36.061 L 44.023 36.061 L 44.023 36.061 L 44.023 36.061 L 44.023 36.061 L 44.023 36.061 L 44.033 36.061 L 44.033 36.061 L 44.033 36.061 L 44.033 36.061 L 44.033 36.061 L 44.033 36.061 L 44.033 36.061 L 44.033 36.061 L 44.033 36.061 L 44.042 36.061 L 44.042 36.061 L 44.042 36.061 L 44.042 36.061 L 44.042 36.061 L 44.042 36.061 L 44.042 36.061 L 44.042 36.061 L 44.042 36.061 L 44.042 36.061 L 44.051 36.061 L 44.051 36.061 L 44.051 36.061 L 44.051 36.061 L 44.051 36.061 L 44.051 36.061 L 44.051 36.061 L 44.051 36.061 L 44.051 36.061 L 44.051 36.061 L 44.051 36.061 L 44.051 36.061 L 44.051 36.061 L 44.051 36.061 L 44.051 36.061 L 44.061 36.061 L 44.061 36.061 L 44.061 36.061 L 44.061 36.061 L 44.061 36.061 L 44.061 36.061 L 44.061 36.061 L 44.061 36.061 L 44.061 36.061 L 44.061 36.061 L 44.061 36.061 L 44.061 36.061 L 44.061 36.061 L 44.061 36.061 L 44.061 36.061 L 44.061 36.061 L 44.061 36.061 C 44.061 36.061 44.061 36.061 44.061 36.061 C 44.805 36.061 45.4 35.411 45.4 34.621 C 45.4 33.821 44.805 33.181 44.061 33.181 C 44.061 33.181 44.061 33.181 44.061 33.181 L 44.061 33.181 L 44.061 33.181 L 44.061 33.181 L 44.061 33.181 L 44.061 33.181 L 44.061 33.181 L 44.061 33.181 L 44.061 33.181 L 44.061 33.181 L 44.061 33.181 L 44.061 33.181 L 44.061 33.181 L 44.061 33.181 L 44.061 33.181 L 44.061 33.181 L 44.061 33.181 L 44.051 33.181 L 44.051 33.181 L 44.051 33.181 L 44.051 33.181 L 44.051 33.181 L 44.051 33.181 L 44.051 33.181 L 44.051 33.181 L 44.051 33.181 L 44.051 33.181 L 44.051 33.181 L 44.051 33.181 L 44.051 33.181 L 44.051 33.181 L 44.051 33.181 L 44.042 33.181 L 44.042 33.181 L 44.042 33.181 L 44.042 33.181 L 44.042 33.181 L 44.042 33.181 L 44.042 33.181 L 44.042 33.181 L 44.042 33.181 L 44.042 33.181 L 44.033 33.181 L 44.033 33.181 L 44.033 33.181 L 44.033 33.181 L 44.033 33.181 L 44.033 33.181 L 44.033 33.181 L 44.033 33.181 L 44.033 33.181 L 44.023 33.181 L 44.023 33.181 L 44.023 33.181 L 44.023 33.181 L 44.023 33.181 L 44.023 33.181 L 44.023 33.181 L 44.014 33.181 L 44.014 33.181 L 44.014 33.181 L 44.014 33.181 L 44.014 33.181 L 44.014 33.181 L 44.014 33.181 L 44.005 33.181 L 44.005 33.181 L 44.005 33.181 L 44.005 33.181 L 44.005 33.181 L 44.005 33.181 L 43.996 33.181 L 43.996 33.181 L 43.996 33.181 L 43.996 33.181 L 43.996 33.181 L 43.986 33.181 L 43.986 33.181 L 43.986 33.181 L 43.986 33.181 L 43.986 33.181 L 43.986 33.181 L 43.977 33.181 L 43.977 33.181 L 43.977 33.181 L 43.977 33.181 L 43.977 33.181 L 43.968 33.181 L 43.968 33.181 L 43.968 33.181 L 43.968 33.181 L 43.968 33.181 L 43.958 33.181 L 43.958 33.181 L 43.958 33.181 L 43.958 33.181 L 43.949 33.181 L 43.949 33.181 L 43.949 33.181 L 43.949 33.181 L 43.949 33.181 L 43.94 33.181 L 43.94 33.181 L 43.94 33.181 L 43.94 33.181 L 43.93 33.181 L 43.93 33.181 L 43.93 33.181 L 43.93 33.181 L 43.921 33.181 L 43.921 33.181 L 43.921 33.181 L 43.921 33.181 L 43.912 33.181 L 43.912 33.181 L 43.912 33.181 L 43.912 33.181 L 43.903 33.181 L 43.903 33.181 L 43.903 33.181 L 43.893 33.181 L 43.893 33.181 L 43.893 33.181 L 43.893 33.181 L 43.884 33.181 L 43.884 33.181 L 43.884 33.181 L 43.884 33.181 L 43.875 33.181 L 43.875 33.181 L 43.875 33.181 L 43.865 33.181 L 43.865 33.181 L 43.865 33.181 L 43.856 33.181 L 43.856 33.181 L 43.856 33.181 L 43.856 33.181 L 43.847 33.181 L 43.847 33.181 L 43.847 33.181 L 43.837 33.181 L 43.837 33.181 L 43.837 33.181 L 43.828 33.181 L 43.828 33.181 L 43.828 33.181 L 43.819 33.181 L 43.819 33.181 L 43.819 33.181 L 43.81 33.181 L 43.81 33.181 L 43.81 33.181 L 43.8 33.181 L 43.8 33.181 L 43.8 33.181 L 43.791 33.181 L 43.791 33.181 L 43.791 33.181 L 43.782 33.181 L 43.782 33.181 L 43.782 33.181 L 43.772 33.181 L 43.772 33.181 L 43.772 33.181 L 43.763 33.181 L 43.763 33.181 L 43.763 33.181 L 43.754 33.181 L 43.754 33.181 L 43.754 33.181 L 43.744 33.181 L 43.744 33.181 L 43.735 33.181 L 43.735 33.181 L 43.735 33.181 L 43.726 33.181 L 43.726 33.181 L 43.726 33.181 L 43.717 33.181 L 43.717 33.181 L 43.707 33.181 L 43.707 33.181 L 43.707 33.181 L 43.698 33.181 L 43.698 33.181 L 43.689 33.181 L 43.689 33.181 L 43.689 33.181 L 43.679 33.181 L 43.679 33.181 L 43.67 33.181 L 43.67 33.181 L 43.67 33.181 L 43.661 33.181 L 43.661 33.181 L 43.651 33.181 L 43.651 33.181 L 43.651 33.181 L 43.642 33.181 L 43.642 33.181 L 43.633 33.181 L 43.633 33.181 L 43.633 33.181 L 43.624 33.181 L 43.624 33.181 L 43.614 33.181 L 43.614 33.181 L 43.605 33.181 L 43.605 33.181 L 43.605 33.181 L 43.596 33.181 L 43.596 33.181 L 43.586 33.181 L 43.586 33.181 L 43.577 33.181 L 43.577 33.181 L 43.568 33.181 L 43.568 33.181 L 43.568 33.181 L 43.558 33.181 L 43.558 33.181 L 43.549 33.181 L 43.549 33.181 L 43.54 33.181 L 43.54 33.181 L 43.531 33.181 L 43.531 33.181 L 43.521 33.181 L 43.521 33.181 L 43.521 33.181 L 43.512 33.181 L 43.512 33.181 L 43.503 33.181 L 43.503 33.181 L 43.493 33.181 L 43.493 33.181 L 43.484 33.181 L 43.484 33.181 L 43.475 33.181 L 43.475 33.181 L 43.465 33.181 L 43.465 33.181 L 43.456 33.181 L 43.456 33.181 L 43.447 33.181 L 43.447 33.181 L 43.438 33.181 L 43.438 33.181 L 43.428 33.181 L 43.428 33.181 L 43.419 33.181 L 43.419 33.181 L 43.41 33.181 L 43.41 33.181 L 43.4 33.181 L 43.4 33.181 L 43.391 33.181 L 43.391 33.181 L 43.382 33.181 L 43.382 33.181 L 43.372 33.181 L 43.372 33.181 L 43.363 33.181 L 43.363 33.181 L 43.354 33.181 L 43.354 33.181 L 43.345 33.181 L 43.345 33.181 L 43.335 33.181 L 43.335 33.181 L 43.326 33.181 L 43.326 33.181 L 43.317 33.181 L 43.317 33.181 L 43.307 33.181 L 43.307 33.181 L 43.298 33.181 L 43.298 33.181 L 43.289 33.181 L 43.279 33.181 L 43.279 33.181 L 43.27 33.181 L 43.27 33.181 L 43.261 33.181 L 43.261 33.181 L 43.252 33.181 L 43.252 33.181 L 43.242 33.181 L 43.242 33.181 L 43.233 33.181 L 43.224 33.181 L 43.224 33.181 L 43.214 33.181 L 43.214 33.181 L 43.205 33.181 L 43.205 33.181 L 43.196 33.181 L 43.196 33.181 L 43.186 33.181 L 43.177 33.181 L 43.177 33.181 L 43.168 33.181 L 43.168 33.181 L 43.159 33.181 L 43.159 33.181 L 43.149 33.181 L 43.14 33.181 L 43.14 33.181 L 43.131 33.181 L 43.131 33.181 L 43.121 33.181 L 43.121 33.181 L 43.112 33.181 L 43.103 33.181 L 43.103 33.181 L 43.093 33.181 L 43.093 33.181 L 43.084 33.181 L 43.075 33.181 L 43.075 33.181 L 43.066 33.181 L 43.066 33.181 L 43.056 33.181 L 43.056 33.181 L 43.047 33.181 L 43.038 33.181 L 43.038 33.181 L 43.028 33.181 L 43.028 33.181 L 43.019 33.181 L 43.01 33.181 L 43.01 33.181 L 43 33.181 L 42.991 33.181 L 42.991 33.181 L 42.982 33.181 L 42.982 33.181 L 42.973 33.181 L 42.963 33.181 L 42.963 33.181 L 42.954 33.181 L 42.954 33.181 L 42.945 33.181 L 42.935 33.181 L 42.935 33.181 L 42.926 33.181 L 42.926 33.181 L 42.917 33.181 L 42.907 33.181 L 42.907 33.181 L 42.898 33.181 L 42.889 33.181 L 42.889 33.181 L 42.88 33.181 L 42.87 33.181 L 42.87 33.181 L 42.861 33.181 L 42.861 33.181 L 42.852 33.181 L 42.842 33.181 L 42.842 33.181 L 42.833 33.181 L 42.824 33.181 L 42.824 33.181 L 42.814 33.181 L 42.805 33.181 L 42.805 33.181 L 42.796 33.181 L 42.796 33.181 L 42.787 33.181 L 42.777 33.181 L 42.777 33.181 L 42.768 33.181 L 42.759 33.181 L 42.759 33.181 L 42.749 33.181 L 42.74 33.181 L 42.74 33.181 L 42.731 33.181 L 42.721 33.181 L 42.721 33.181 L 42.712 33.181 L 42.703 33.181 L 42.703 33.181 L 42.694 33.181 L 42.684 33.181 L 42.684 33.181 L 42.675 33.181 L 42.666 33.181 L 42.666 33.181 L 42.656 33.181 L 42.647 33.181 L 42.647 33.181 L 42.638 33.181 L 42.628 33.181 L 42.628 33.181 L 42.619 33.181 L 42.61 33.181 L 42.61 33.181 L 42.601 33.181 L 42.591 33.181 L 42.591 33.181 L 42.582 33.181 L 42.573 33.181 L 42.573 33.181 L 42.563 33.181 L 42.554 33.181 L 42.554 33.181 L 42.545 33.181 L 42.535 33.181 L 42.535 33.181 L 42.526 33.181 L 42.517 33.181 L 42.508 33.181 L 42.508 33.181 L 42.498 33.181 L 42.489 33.181 L 42.489 33.181 L 42.48 33.181 L 42.47 33.181 L 42.47 33.181 L 42.461 33.181 L 42.452 33.181 L 42.452 33.181 L 42.442 33.181 L 42.433 33.181 L 42.424 33.181 L 42.424 33.181 L 42.415 33.181 L 42.405 33.181 L 42.405 33.181 L 42.396 33.181 L 42.387 33.181 L 42.387 33.181 L 42.377 33.181 L 42.368 33.181 L 42.359 33.181 L 42.359 33.181 L 42.349 33.181 L 42.34 33.181 L 42.34 33.181 L 42.331 33.181 L 42.322 33.181 L 42.312 33.181 L 42.312 33.181 L 42.303 33.181 L 42.294 33.181 L 42.294 33.181 L 42.284 33.181 L 42.275 33.181 L 42.266 33.181 L 42.266 33.181 L 42.256 33.181 L 42.247 33.181 L 42.247 33.181 L 42.238 33.181 L 42.229 33.181 L 42.219 33.181 L 42.219 33.181 L 42.21 33.181 L 42.201 33.181 L 42.191 33.181 L 42.191 33.181 L 42.182 33.181 L 42.173 33.181 L 42.173 33.181 L 42.163 33.181 L 42.154 33.181 L 42.145 33.181 L 42.145 33.181 L 42.136 33.181 L 42.126 33.181 L 42.117 33.181 L 42.117 33.181 L 42.108 33.181 L 42.098 33.181 L 42.089 33.181 L 42.089 33.181 L 42.08 33.181 L 42.07 33.181 L 42.061 33.181 L 42.061 33.181 L 42.052 33.181 L 42.043 33.181 L 42.043 33.181 L 42.033 33.181 L 42.024 33.181 L 42.015 33.181 L 42.015 33.181 L 42.005 33.181 L 41.996 33.181 L 41.987 33.181 L 41.987 33.181 L 41.977 33.181 L 41.968 33.181 L 41.959 33.181 L 41.959 33.181 L 41.95 33.181 L 41.94 33.181 L 41.931 33.181 L 41.931 33.181 L 41.922 33.181 L 41.912 33.181 L 41.903 33.181 L 41.903 33.181 L 41.894 33.181 L 41.884 33.181 L 37.383 33.181 C 36.49 33.611 36.044 34.091 36.044 34.621 Z" stroke-linecap="round" />
</g>
<g transform="matrix(1.33 0 0 1.33 16.87 16.98)" id="e9XLLzq7_Mgqwe9Yu3Xyh" clip-path="url(#CLIPPATH_25)"  >
<clipPath id="CLIPPATH_25" >
	<rect transform="matrix(1 0 0 1 55.78 0.47)" id="_clipPath_bA8FaZ2Fb7fHpTPUfy8ELthww7hQlhJx" x="-90" y="-25" rx="0" ry="0" width="180" height="50" />
</clipPath>
<path style="stroke: none; stroke-width: 1; stroke-dasharray: none; stroke-linecap: butt; stroke-dashoffset: 0; stroke-linejoin: miter; stroke-miterlimit: 4; fill: rgb(255,255,255); fill-rule: nonzero; opacity: 1;" vector-effect="non-scaling-stroke"  transform=" translate(-34.22, -24.53)" d="M 24.466 25.741 C 23.862 25.741 23.341 25.181 23.341 24.531 C 23.341 23.891 23.862 23.321 24.466 23.321 C 26.419 23.321 42.034 23.321 43.978 23.321 C 44.582 23.321 45.103 23.891 45.103 24.531 C 45.103 25.181 44.582 25.741 43.978 25.741 C 40.081 25.741 26.419 25.741 24.466 25.741 Z" stroke-linecap="round" />
</g>
</svg>